<svg xmlns="http://www.w3.org/2000/svg" viewBox="-19.41 -119.98 171.73 164.53" width="171.73" height="164.53">
<!-- drop cap W · seed "curiosity" v0 · arc, contours -->
<defs><mask id="dc-57-23e" maskUnits="userSpaceOnUse" x="-19.41" y="-119.98" width="171.73" height="164.53"><rect x="-19.41" y="-119.98" width="171.73" height="164.53" fill="#fff"/><path d="M94.1 -47.23C94.08 -46.47 93.96 -43.89 93.98 -42.67C94 -41.45 93.98 -41.15 94.21 -39.92C94.43 -38.68 94.97 -37.06 95.35 -35.25C95.72 -33.44 96.18 -30.39 96.46 -29.04C96.73 -27.69 96.77 -27.67 96.98 -27.15C97.19 -26.64 97.42 -26.3 97.71 -25.97C98 -25.65 97.61 -25.68 98.72 -25.19C99.83 -24.71 103.4 -23.42 104.34 -23.07M120.34 -73.24L114.64 -70.73M92.51 -53.23C92.52 -52.51 92.66 -50.41 92.55 -48.92C92.44 -47.42 91.95 -45.46 91.83 -44.27C91.71 -43.07 91.76 -42.58 91.84 -41.74C91.93 -40.9 91.96 -40.47 92.34 -39.23C92.72 -37.99 93.58 -36.49 94.12 -34.29C94.66 -32.1 95.22 -27.64 95.59 -26.04C95.96 -24.45 96.06 -25.07 96.34 -24.73C96.62 -24.39 96.04 -24.52 97.29 -24.01C98.54 -23.5 102.75 -22.05 103.84 -21.65M91.18 -56.23C91.17 -55.28 91.28 -52.32 91.14 -50.54C91 -48.77 90.49 -47.03 90.36 -45.59C90.23 -44.15 90.29 -42.98 90.37 -41.92C90.45 -40.85 90.5 -40.32 90.83 -39.21C91.16 -38.1 92.01 -36.23 92.35 -35.24C92.69 -34.26 92.58 -34.93 92.86 -33.29C93.14 -31.65 93.69 -26.98 94.04 -25.42C94.38 -23.85 94.54 -24.33 94.93 -23.89C95.32 -23.45 94.89 -23.39 96.38 -22.76C97.86 -22.13 102.6 -20.55 103.84 -20.11M90.52 -58.73C90.41 -58.34 89.98 -57.58 89.86 -56.42C89.75 -55.26 89.95 -53.5 89.82 -51.77C89.69 -50.04 89.2 -47.56 89.06 -46.04C88.93 -44.53 88.96 -43.79 89.02 -42.67C89.09 -41.54 89.15 -40.53 89.46 -39.29C89.77 -38.05 90.55 -36.28 90.87 -35.21C91.2 -34.15 91.16 -34.59 91.42 -32.92C91.68 -31.24 92.09 -26.75 92.42 -25.15C92.76 -23.55 92.95 -23.87 93.43 -23.3C93.92 -22.73 94.68 -22.14 95.33 -21.72C95.99 -21.31 96.42 -21.13 97.35 -20.8C98.27 -20.47 99.84 -20.09 100.87 -19.75C101.9 -19.4 103.09 -18.9 103.54 -18.73M89.94 -60.23C89.79 -59.97 89.3 -59.24 89.07 -58.67C88.85 -58.09 88.67 -57.94 88.58 -56.79C88.49 -55.65 88.66 -53.53 88.53 -51.79C88.4 -50.06 87.94 -47.73 87.81 -46.38C87.68 -45.03 87.69 -44.83 87.75 -43.67C87.81 -42.51 87.88 -40.88 88.18 -39.42C88.48 -37.96 89.25 -36.02 89.55 -34.92C89.86 -33.81 89.77 -34.48 90 -32.79C90.23 -31.1 90.71 -26.28 90.93 -24.77C91.16 -23.26 91.13 -24.13 91.35 -23.75C91.58 -23.36 91.71 -23.01 92.3 -22.46C92.89 -21.91 94.09 -20.97 94.9 -20.45C95.71 -19.94 95.83 -19.86 97.15 -19.38C98.48 -18.9 101.89 -17.87 102.84 -17.57M122.84 -81.09C122.37 -80.92 120.96 -80.44 120.03 -80.04C119.1 -79.65 117.72 -78.95 117.26 -78.73M89.34 -61.34C89.11 -60.99 88.34 -59.96 87.98 -59.2C87.61 -58.44 87.27 -58.11 87.14 -56.79C87.02 -55.47 87.33 -53.27 87.22 -51.29C87.12 -49.31 86.55 -46.81 86.5 -44.92C86.44 -43.02 86.53 -41.98 86.89 -39.92C87.24 -37.86 88.21 -35.13 88.65 -32.54C89.09 -29.96 89.3 -25.96 89.52 -24.42C89.75 -22.87 89.77 -23.66 90 -23.26C90.23 -22.87 90.51 -22.48 90.91 -22.06C91.3 -21.64 91.77 -21.22 92.36 -20.76C92.96 -20.3 93.75 -19.71 94.47 -19.28C95.2 -18.85 95.41 -18.64 96.72 -18.16C98.03 -17.67 101.4 -16.67 102.34 -16.37M89.34 -62.91C89.1 -62.63 88.34 -61.84 87.88 -61.2C87.41 -60.55 86.91 -59.68 86.56 -59.04C86.2 -58.41 85.92 -57.86 85.75 -57.38C85.58 -56.9 85.49 -57.16 85.52 -56.17C85.55 -55.17 85.97 -53.08 85.93 -51.42C85.89 -49.75 85.35 -47.63 85.26 -46.17C85.16 -44.71 85.27 -43.83 85.36 -42.65C85.45 -41.47 85.44 -41.04 85.8 -39.1C86.16 -37.17 87.15 -33.53 87.55 -31.04C87.95 -28.55 87.98 -25.56 88.2 -24.17C88.41 -22.78 88.55 -23.16 88.81 -22.71C89.08 -22.25 88.94 -22.2 89.79 -21.46C90.65 -20.72 92.89 -19 93.96 -18.28C95.02 -17.55 94.78 -17.67 96.18 -17.12C97.58 -16.58 101.31 -15.35 102.34 -15M123.84 -84.61C123.25 -84.38 121.29 -83.68 120.29 -83.27C119.29 -82.85 118.25 -82.3 117.84 -82.1M88.84 -63.95C88.19 -63.08 85.7 -59.83 84.93 -58.73C84.17 -57.63 84.42 -57.77 84.27 -57.34C84.13 -56.91 84.01 -57.18 84.05 -56.17C84.09 -55.16 84.54 -52.94 84.52 -51.29C84.51 -49.65 84.02 -47.75 83.95 -46.29C83.87 -44.83 83.99 -43.77 84.1 -42.54C84.2 -41.31 84.18 -40.96 84.56 -38.92C84.93 -36.87 85.97 -32.72 86.35 -30.28C86.73 -27.83 86.66 -25.48 86.84 -24.22C87.01 -22.96 87.13 -23.22 87.4 -22.72C87.67 -22.22 88.09 -21.64 88.44 -21.22C88.79 -20.81 88.76 -20.82 89.5 -20.24C90.24 -19.66 91.9 -18.41 92.89 -17.75C93.87 -17.09 93.94 -16.94 95.43 -16.3C96.92 -15.65 100.77 -14.28 101.84 -13.88M124.84 -86.49C124.08 -86.2 121.42 -85.22 120.3 -84.76C119.17 -84.3 118.47 -83.9 118.11 -83.73M88.34 -64.95C87.59 -64 84.73 -60.44 83.84 -59.23C82.96 -58.01 83.22 -58.2 83.03 -57.67C82.83 -57.14 82.68 -57.13 82.66 -56.04C82.64 -54.96 82.91 -52.79 82.9 -51.17C82.88 -49.54 82.59 -47.81 82.58 -46.29C82.56 -44.77 82.7 -43.23 82.8 -42.04C82.89 -40.86 82.79 -41.17 83.16 -39.17C83.53 -37.17 84.65 -32.54 85.05 -30.04C85.44 -27.54 85.3 -25.47 85.51 -24.17C85.72 -22.87 85.97 -22.81 86.28 -22.24C86.59 -21.68 86.98 -21.19 87.37 -20.75C87.76 -20.32 87.87 -20.21 88.62 -19.63C89.37 -19.04 90.86 -17.94 91.88 -17.25C92.91 -16.56 93.18 -16.25 94.78 -15.5C96.37 -14.75 100.34 -13.19 101.45 -12.73M125.56 -88.23L118.18 -85.23M87.84 -65.94C87.43 -65.39 86.27 -63.78 85.37 -62.66C84.48 -61.54 83.07 -60.06 82.46 -59.22C81.85 -58.39 81.91 -58.25 81.71 -57.65C81.52 -57.06 81.38 -57.43 81.28 -55.66C81.19 -53.89 81.13 -49.42 81.15 -47.04C81.18 -44.67 81.34 -42.69 81.43 -41.42C81.52 -40.15 81.47 -40.42 81.68 -39.42C81.89 -38.42 82.36 -36.96 82.69 -35.42C83.01 -33.88 83.39 -31.98 83.61 -30.17C83.83 -28.36 83.84 -25.77 84.01 -24.54C84.19 -23.32 84.39 -23.37 84.66 -22.81C84.93 -22.25 85.27 -21.69 85.63 -21.19C85.99 -20.7 86.38 -20.26 86.83 -19.82C87.28 -19.39 87.2 -19.39 88.33 -18.59C89.47 -17.78 91.57 -16.12 93.65 -14.98C95.74 -13.83 99.64 -12.26 100.84 -11.72M127.06 -90.23L118.31 -86.73M87.84 -67.43C87.35 -66.79 85.83 -64.69 84.9 -63.6C83.98 -62.5 82.86 -61.5 82.28 -60.85C81.69 -60.19 81.7 -60.21 81.39 -59.68C81.09 -59.15 80.72 -58.44 80.46 -57.68C80.21 -56.93 80.01 -56.23 79.86 -55.14C79.71 -54.06 79.54 -53.5 79.56 -51.17C79.58 -48.84 79.86 -43.16 79.98 -41.17C80.09 -39.17 80 -40.28 80.26 -39.19C80.51 -38.11 81.14 -36.98 81.49 -34.67C81.84 -32.35 82.12 -27.14 82.36 -25.3C82.6 -23.46 82.63 -24.27 82.93 -23.64C83.23 -23.02 83.7 -22.2 84.14 -21.56C84.58 -20.91 85.04 -20.34 85.57 -19.77C86.1 -19.2 86.07 -19.06 87.35 -18.11C88.62 -17.17 90.96 -15.38 93.21 -14.1C95.46 -12.82 99.57 -11.05 100.84 -10.44M128.34 -92.1L118.34 -88.15M87.34 -68.39C86.86 -67.75 85.44 -65.71 84.44 -64.54C83.44 -63.36 82.01 -62.09 81.34 -61.36C80.67 -60.63 80.77 -60.78 80.41 -60.16C80.06 -59.54 79.56 -58.63 79.21 -57.65C78.86 -56.67 78.51 -55.42 78.33 -54.28C78.14 -53.13 78.06 -52.96 78.1 -50.79C78.14 -48.63 78.43 -43.23 78.56 -41.29C78.68 -39.36 78.61 -40.21 78.82 -39.18C79.03 -38.15 79.49 -37.27 79.81 -35.1C80.13 -32.93 80.45 -28.03 80.74 -26.17C81.03 -24.31 81.18 -24.66 81.53 -23.92C81.88 -23.18 82.33 -22.43 82.83 -21.72C83.33 -21.01 83.83 -20.39 84.51 -19.66C85.19 -18.92 85.46 -18.42 86.9 -17.31C88.34 -16.19 90.91 -14.29 93.15 -12.97C95.39 -11.66 99.14 -10.01 100.34 -9.42" fill="none" stroke="#000" stroke-width="0.55" stroke-linecap="round" stroke-linejoin="round"/></mask></defs>
<path class="dc-letter" d="M134.32 -100L134.32 -97.18Q131.5 -96.19 128.11 -92.8Q124.72 -89.41 122.46 -81.92L96.89 0.42Q96.05 0.42 95.13 0.35Q94.21 0.28 93.22 0.28Q92.37 0.28 91.45 0.35Q90.54 0.42 89.69 0.42L59.75 -89.12Q58.19 -93.93 56.14 -95.48Q54.1 -97.03 51.98 -97.18L51.98 -100Q55.37 -99.86 60.24 -99.72Q65.11 -99.58 69.92 -99.58Q75.85 -99.58 81.07 -99.72Q86.3 -99.86 89.55 -100L89.55 -97.18Q85.17 -97.03 82.77 -96.26Q80.37 -95.48 80.01 -93.01Q79.66 -90.54 81.36 -85.31L101.69 -22.74L98.87 -18.22L115.82 -71.75Q118.93 -81.36 118.71 -86.86Q118.5 -92.37 115.4 -94.7Q112.29 -97.03 106.5 -97.18L106.5 -100Q111.16 -99.86 115.32 -99.72Q119.49 -99.58 123.73 -99.58Q126.98 -99.58 129.59 -99.72Q132.2 -99.86 134.32 -100ZM34.32 -100L34.32 -97.18Q31.07 -96.89 29.8 -95.34Q28.53 -93.79 28.74 -91.31Q28.95 -88.84 30.08 -85.31L51.69 -21.19L48.02 -16.67L66.67 -72.88L68.79 -69.21L46.05 0.42Q45.2 0.42 44.28 0.35Q43.36 0.28 42.37 0.28Q41.53 0.28 40.61 0.35Q39.69 0.42 38.84 0.42L7.77 -88.14Q5.93 -93.36 3.32 -95.2Q0.71 -97.03 -1.41 -97.18L-1.41 -100Q2.26 -99.86 7.49 -99.72Q12.71 -99.58 17.66 -99.58Q22.88 -99.58 27.26 -99.72Q31.64 -99.86 34.32 -100Z" fill="#000000" mask="url(#dc-57-23e)"/>
<g class="dc-accent" fill="none" stroke="#ff4d06" stroke-width="0.85" stroke-linecap="round" stroke-linejoin="round">
<g class="dc-arc"><path d="M120.25 -18.47A74.39 74.39 0 0 1 26.81 -5.13"/><path d="M120.25 -18.47L124.71 -14.39M119.14 -17.29L122.08 -14.47M118 -16.13L119.92 -14.21M116.84 -14.99L118.72 -13.04M115.66 -13.88L117.49 -11.89M114.45 -12.8L116.24 -10.76M113.22 -11.74L117.11 -7.11M111.96 -10.72L113.66 -8.6M110.69 -9.71L112.34 -7.56M109.39 -8.74L110.99 -6.55M108.07 -7.79L109.62 -5.57M106.73 -6.88L109 -3.49M105.37 -5.99L106.83 -3.71M103.99 -5.13L105.4 -2.82M102.59 -4.31L103.95 -1.96M101.18 -3.51L102.48 -1.14M99.75 -2.75L102.54 2.62M98.3 -2.01L99.5 0.42M96.84 -1.31L97.98 1.15M95.36 -0.64L96.45 1.84M93.87 0L94.9 2.5M92.36 0.6L93.84 4.4M90.84 1.17L91.77 3.72M89.31 1.71L90.18 4.28M87.77 2.22L88.58 4.8M86.22 2.69L86.97 5.29M84.65 3.12L86.22 8.97M83.08 3.53L83.73 6.16M81.5 3.9L82.09 6.54M79.91 4.23L80.44 6.89M78.32 4.53L78.79 7.2M76.72 4.79L77.34 8.83M75.11 5.02L75.46 7.71M73.5 5.22L73.79 7.91M71.88 5.38L72.12 8.08M70.26 5.5L70.44 8.2M68.64 5.59L68.91 11.63M67.02 5.64L67.08 8.35M65.4 5.66L65.4 8.37M63.78 5.64L63.72 8.35M62.15 5.59L62.04 8.3M60.53 5.5L60.27 9.57M58.92 5.38L58.68 8.08M57.3 5.22L57.01 7.91M55.69 5.02L55.34 7.71M54.08 4.79L53.67 7.47M52.48 4.53L51.43 10.49M50.89 4.23L50.36 6.89M49.3 3.9L48.71 6.54M47.72 3.53L47.07 6.16M46.15 3.12L45.44 5.74M44.58 2.69L43.44 6.6M43.03 2.22L42.21 4.8M41.49 1.71L40.62 4.28M39.96 1.17L39.03 3.72M38.44 0.6L37.45 3.13M36.93 0L34.62 5.59M35.44 -0.64L34.35 1.84M33.96 -1.31L32.81 1.15M32.5 -2.01L31.3 0.42M31.05 -2.75L29.8 -0.34M29.62 -3.51L27.66 0.07M28.2 -4.31L26.85 -1.96M26.81 -5.13L23.67 0.04M122.24 -16.64A77.1 77.1 0 0 1 25.4 -2.82" stroke-width="0.53"/><circle cx="65.4" cy="-68.73" r="1.7"/><circle cx="97.16" cy="-1.46" r="1.27" fill="#ff4d06" stroke="none"/></g>
</g>
</svg>